<svg xmlns="http://www.w3.org/2000/svg" xml:space="preserve" id="svg1" width="219.573358" height="28.820008" version="1.1" viewBox="0 0 58.095451 7.625294"><g id="layer1" transform="translate(-75.406938 -144.68998)"><g id="g1" class="layer" transform="translate(71.123332 129.52408) scale(.26458333)"><path id="svg_1" fill="#065f46" d="M36.75 67.88c-.0718.308227-.132308.5618-.25.83-.139246.302365-.350066.440427-.58.69-.289952.171188-.450279.294927-.87875.395-.28484.08368-.63585.136122-.98125.065-.32942.126678-.719927-.03903-1.16.08-.338587-.107853-.461847-.781603-.08-.83.2465-.119693.629922-.138394.83-.02.430093-.155641.665228-.021 1.02-.04.245179-.07034.565463-.133999.81-.32.259296-.278814.415561-.612019.35-1-.07248-.389317-.209524-.648697-.54-.87-.41428.04369-.71874-.61779-.37-.92-.02915-.44611.01552-.851206-.24-1.1-.157901-.23001-.632225-.45662-1.04-.28-.256606-.0644-.662893.01976-.77-.41-.0077-.352049.407147-.76671.11-1.08.12899-.345359-.60532-.589899-.38-.97.193368-.250578.574944-.49038.4975-.76625.182932-.344574.02289-.756992-.1275-.94375-.299753-.3627-.642509-.496605-1-.57-.34405.09489-.680502-.105628-1.01.03-.282453.03323-.731862-.1086-.96 0-.59133-.04811-.4739-.480883-.66-.86.021-.197698-.359541-.643586-.66-.62-.290948-.267867-.677854-.14119-1.05125-.13125-.313178-.041545-.619763-.06853-.89875-.02875-.363765-.03253-.791804.03502-1.1075-.025-.386619.09227-.865738-.01073-1.1525.035-.290247.04705-.670941-.04871-1.02.01-.326289.03968-.790668.07793-.99.38-.3895.229341-.452367.587497-.44.96-.263289.42267-.540852.346236-.99.27-.276837.0045-.943329.06783-1.12.320837-.189037.021-.400786.372079-.47.489163-.03337.249823-.182792.501549.02.83.215921.283785.04944.822849-.39.73-.24165.152367-.529391-.05772-.74.1-.461373-.02378-.640396.356687-.98.58-.05771.284811-.227961.717729-.05 1.03.208479.345659.574767.655068 1 .71.161542.321474.260579.417223.065.76625-.223492.311632-.09794.703362.075 1.02375.106953.558631-.415664.611027-.68.91-.160074.345701-.335406.729886-.06 1.1.157155.296577.290768.52315.66.55.303396.372802.959771-.126666.97.53.193856.249003-.25487.707397-.63.5-.313415.02736-.682148-.1903-1.02-.3-.295103-.147735-.489579-.447808-.71-.63-.189883-.361594-.319534-.882141-.28-1.22.02681-.247847.164163-.81725.25-.97.279024-.321172.600223-.508598.4-.89-.136231-.209046.236661-.75747-.07375-.79625-.303057-.235221-.656412-.568465-.77625-.83375-.226046-.245299-.09729-.581647-.3-.9.189806-.372648.03102-.601308.36-1 .143997-.274027.33754-.516314.68-.685.251694-.194328.607645-.253846.84-.345.494779.04692.294996-.377938.36-.74.155285-.354388.200631-.710546.53-.95.256982-.223034.530784-.507858.86-.53.208397-.201375.512035-.134102.81-.24.584029.199986.595893-.293873.79-.68.234488-.224638.480254-.554267.84-.72.386264-.136245.668196-.180856 1.07-.24.338517.06672.676983-.08488 1.01.07.377881-.100893.926282-.03475 1.21-.09.301655.131894.662889-.01768.9525.05625.346787.04946.69871-.042 1.1175-.0063.274701-.02011.689378.01963 1.01.09.349388.02022.539518.211212.8.42.309824.08462.499368.501618.66375.81.05604.484639.460268.2584.79625.37.321876-.0101.56731-.03157.96-.03.351578-.003.709493.138485 1.07.26.217486.267046.649769.413305.73.77.213303.247466.395162.779411.3 1.06.112072.339858-.102657.478813-.2.92-.27631.18997-.15354.570902.07.9.116872.346458-.108403 1.023913.39.79.365597.132486.713832.207664.9.53.338689.165323.369674.644921.57.94-.01582.214109.01248.633682.03625.88125-.171327.235159.183732.345582.41375.51875.158075.26467.364892.487547.46875.84375.101073.119825-.03174.889175.15125.43625z" class="st0"/><path id="svg_2" fill="#065f46" d="M24.7 86.14c-.313729-.14335-.975055.02094-.84-.57.02295-.391438.420906-.226577.72-.36.258674.147545.689546.03221.97.03.285047.06901.517166.08078.81-.02.303715.156072.69724-.0018 1.02.02375.348478.05145.690397.19004.56.61625-.269821.27664-.541721.177928-.86.21-.312497-.06947-.758554.06222-1-.01-.330671.03744-.667067-.04132-1.03.01-.126358.01731-.237082-.192608-.35.07z" class="st0"/><path id="svg_3" fill="#065f46" d="M25.16 62.49c.361198-.166645.710504-.135799 1.12-.03.316821.253892.482815.527808.49.94.0148.449746-.227958.718768-.6275.90625.0314.363816.02448.646696-.0425.97375.07238.320856-.174758.755768-.41.95-.255779.312026-.51276.64263-.8375.93-.214453.219888-.331029.412399-.5225.62-.393126.298473-.643767.593994-.08.96.217315.198704.502786.356409.67.7.350863.296357.239426.624933.33.99-.160359.259602.02627.658603-.09.97.05733.415871-.04144.813604-.02 1.21.03611.387049.06009.644849 0 1 .07928.286638.05029.587099-.01.85.05402.337321.08852.558804.08.82.04349.301884.02007.618189.0175 1.0225-.02425.340132-.0087.821814.0125 1.0775.02622.31743.0033.654779-.05 1.02.141518.283291.02888.740723.04 1.02-.01228.270451.03891.784896-.02 1.01.06612.273663.137842.66569.01.97.09647.426462.06705.733112.02 1.18-.03199.408314.142724.452824.49.38.210236.02351.732352.07072.86625-.08375-.09381-.472086-.06132-.808787-.02625-1.26625-.0061-.438915.016-.759714-.01-1.1.01287-.532577.0038-.619315.03-1.05.02396-.359479-.03358-.607321.01-.92-.06226-.340915.03191-.778263-.05-1.2.03662-.37114.05228-.807076.01125-1.13875-.03911-.268332-.02373-.479898-.035-.78-.000795-.379689.07321-.736338-.01625-1.22125.05117-.384584.01853-.599442.03-1.02-.01578-.379617-.0075-.730412 0-1.19.212323-.323654.416643-.602514.78-.8.196376-.33954.553493-.390604.75375-.66875.276748-.226613.634626-.379228.76625-.71125.190006-.24782-.04144-.556783.08-.87-.09325-.405696.07213-.680503-.05-1.1.07304-.463212-.0305-.817994.04625-1.2575-.139875-.30913.01542-.639029-.04-1.0125.03322-.324284-.05241-.6109.0038-.93.06431-.368789-.05622-.853644.05-1.21.05675-.441353-.310621-.562941-.51-.88-.223172-.274169-.180317-.82385.04-1.03.08947-.320694.451623-.425016.76-.52.313001-.01931.677405.164223.92.42.113977.338936.25067.497898.14.86-.08196.280757-.208564.519128-.55.7-.118039.36593-.0471.755677 0 1.06-.126699.287227-.01256.635346-.03.92.02042.35924-.06892.71731.01 1.14-.09229.350897.04661.78653-.07 1.08.141038.397436-.02358.797895.07 1.15-.173011.600881.14767.649375.45.15.310588-.319077.540066-.469892.79-.86.211083-.07764.552038-.394598.55-.71-.0038-.151535-.431195-.316865-.500089-.580089-.130623-.543941.051396-.702293.350039-1.099911.330015-.313498.719641-.225832 1.1-.1.301966.24091.631759.567687.54.950837.0074.409399-.218104.683805-.48125.822913-.265155.168537-.237448.611838-.530469.949219-.278713.183079-.413519.43179-.748281.707031-.151979.319253-.446473.453262-.66.69-.246073.292042-.636617.580705-.795.8975-.254768.147801-.486019.491236-.705.6525-.338942.249479-.660476.538506-.94.75-.208401.315937-.913932.448796-.77.88-.05569.537288.0036.753909-.07 1.21.02057.447925.06207.704523.05 1.15.04989.374374-.0095.688779 0 1.07.06444.287661-.02741.596109-.01.9.01592.32601.0544.704028.01 1.05.09221.266296-.05702.802879.08 1.14-.129177.357805-.01466.803191-.02 1.2-.03262.225815-.01394.555924-.01.87-.08158.288845.03167.612471-.05.86.103153.169791-.03126.641466.07.92-.158895.492006.611867.115472.97.26.303819-.0041.553496-.03123.94-.03.379232.113316.696921-.08221.870837.22.09907.287076-.140846.693677-.560837.58-.360718.03988-.76433.01359-1.06.01-.409405-.01222-.647806.04124-1.1-.01-.385365.08857-.660106-.0028-1.04625.09-.341797-.119078-.674933.04589-1.01375-.06-.360765.06358-.839089-.000215-1.1.01-.456231.0477-.810418-.04568-1.29.03-.41394-.03561-.682372.03247-1.05625-.0025-.344906-.0026-.471054-.630077-.06375-.7375.252639-.108029.535857.115788.78-.06.361637.09883.711054.01406 1.14.06.666931.125498.62975-.278832.64-.73-.0331-.426196.08629-.762977-.03-1.06.07421-.410148-.0119-.879257.07-1.19-.09113-.350997.02561-.635849.01-1.08-.04136-.288913-.01822-.712051-.03-1.1-.04236-.23823-.01474-.744859 0-1.02-.145614-.261125.156543-.651412-.08-.79-.194333-.183697-.379023-.591813-.71-.76-.173589-.27784-.436268-.385993-.66-.69-.275494-.227664-.387351-.563577-.57-.86-.313937-.21374-.532648-.541938-.66-.89-.06343-.534561-.192086-.726127-.07-1.13.03625-.379964-.43861-.444227-.56-.75-.156192-.374783-.154327-.763617.03-1.02.2529-.233563.614661-.573132.96-.47.30435.03912.617318.190372.76125.50125.268314.438146.104897.654763.01875 1.07875-.273492.270714-.61044.324026-.52.76.02084.443969-.02114.809282.37 1.11.219475.258533.427099.507638.64.7.196774.295347.447324.435803.65.71.309788.473583.421102.0873.43-.34-.100851-.408928-.01576-.77035-.05-1.07-.05116-.434352.02887-.695934-.0225-1.105.09094-.324665-.02827-.604716.0325-.785-.128036-.306971.04285-.681618-.05-1.05-.0051-.32982-.359948-.542061-.58-.81-.277213-.232098-.489932-.417264-.75-.75-.332156-.119814-.559508-.552672-.82-.71-.259267-.153517-.356304-.288376-.57-.49-.252586-.154904-.437682-.475458-.47-.81-.103431-.356735.03149-.76286-.07375-1.0625.01909-.397862.06057-.761873-.01625-1.0675.06957-.258003-.05586-.654764.08-.95-.176856-.217835.234342-.794212-.26-.88-.276912-.304931-.383971-.55164-.39-1.02.122595-.348325.341812-.734923.76-.83.503462-.02073.709717.03303 1.06.31.240896.357617.208473.732789.16 1.21-.158583.275526-.601796.328678-.58.71.11694.298083-.05933.757356.07 1.15-.114316.400968.01037.835819-.11 1.13-.06401.391925.176749.925452.02 1.17.06568.502723.497388.395029.65.82.309123-.04227.598472.791583.89.33.138712-.223377.342373-.539496.66-.7.163885-.26741.384255-.478917.66-.74.227384-.25748.515138-.416199.52-.75-.0459-.296169.286405-.929585-.19-1.15-.338807-.295443-.400549-.741303-.41-1.11.07657-.262668.360287-.451776.43-.64zm3.88-.48c-.149162.536238.851318.318729.4-.04-.02092-.278447-.298804.0299-.4.04zm-3.12 1.45c.260128-.464732-.760383-.337213-.4.08.1021.136554.444501.114053.4-.08zm6.26 2.65c.196073-.665956-1.037445.01601-.14.17.03453-.05344.226965-.07083.14-.17zm-10.32-4.39c-.602844-.705962-.621093.781019-.09.15.07321.002.131361-.08892.09-.15zm-.05 9.03c.515423.537341.739962-.611707.13-.29-.276517.02533.01803.210774-.13.29zm7.93-1.72c-.04409.02502.02725.03023 0 0zm-5.28 5.82c-.03588.02555.03588.02555 0 0z" class="st0"/><path id="svg_4" fill="#065f46" d="M22.5 84.29c.290433-.310906.694347-.15096 1.09-.18.47993.02748.759955-.05555 1.1775.01125.281264-.03332.986792-.06042 1.2225-.01125.401357.03427.751186-.118407 1.05.03.316569-.185323.587121.03304.92-.06.363306.0063.664202.06294 1.08.01.418672.350115.142074.849036-.27.86-.316293-.130957-.576547.0025-.81-.09-.394204.0049-.758979.102169-1.04-.02-.49184.05578-.708504.02035-1.16894.02071-.236511-.0061-.740082-.0052-1.08106.03929-.398363-.06151-.606153-.06273-.92.01-.307389-.06424-.626016.02426-.97.03-.235426-.000306-.435042-.487567-.28-.65z" class="st0"/><path id="svg_5" fill="#065f46" d="M39.6 75.6c.332811-.335294.286058-1.057293.950347-.66978.780249-.195488 1.712627-.0484 2.447368-.02195.797176-.447506 1.926344.334935 1.536887 1.102306.105342.538593.256836 1.53849 1.162898 1.37598.855566.382069 1.385487-.283107 1.711514-.632841.04405-.462483.447988-1.172784-.199014-1.683755-.1625-.752274-1.003566-1.228671-1.670083-1.587007-.543066-.495958-1.362728-.875838-2.019422-1.291112-.617583-.414648-1.158284-1.031272-1.643629-1.634018-.764073-.323121-.831-1.376862-1.130047-2.11271-.153458-.753609-.39814-1.49044-.197849-2.270549.0043-.770632.273782-1.621603.495181-2.237368.330249-.638268.639755-1.523367 1.332915-2.003938.598378-.574506 1.401533-1.271087 2.271733-1.076981.86246-.313513 1.870156-.313003 2.659722.03612.794032.04336 1.572363.285575 2.264535.725938.73669.654445 1.537091 1.281865 1.730593 2.251281.427147.773436.288214 1.669379.431433 2.474029.229372.511176.386895 1.904686-.496824 1.965618-.938184-.03526-1.732463.09287-2.660889.03239-.489663-.0622-1.300759.161995-1.096805-.591-.13806-.703724-.357875-1.75394.450751-1.977058-.277885-.591611-.544456-1.080817-1.308811-1.066054-.763834-.08348-1.417457.418788-1.765361 1.076137-.272948.853284.02119 1.77085.293377 2.555248.47776.610068 1.215661 1.090776 1.694508 1.63181.676905.445818 1.447308.779926 2.074732 1.218724.397487.564779 1.154705.72303 1.466186 1.425264.312063.32935.711089.840587.739036 1.545555.10927.373715-.01258.410583.281435.676022-.02838.165025.175674.672678-.05839.99164.08155.201607.53151.490112.08198.612066.215926.170627.02459.42403.147065.877195-.261753.690083-.411261 1.62336-.956566 2.348069-.394779.611979-.881933 1.180502-1.516447 1.571445-.630602.470496-1.383458.47897-2.078906.810251-.718396.148342-1.482042-.05812-2.341413.02585-.8012-.169611-1.502824-.58083-2.238421-.890553-.800781-.482624-1.216702-1.284053-1.591569-2.116014-.052236-.770332-.129583-1.574698-.878214-1.924022-.44609-.506046.055079-1.099744-.375536-1.542228Z" class="st0"/><path id="svg_6" fill="#065f46" d="M181.23 70.3c-.17052 1.191544 1.40894 2.182396 1.81 3.42.19724 1.504107-.0225 2.522994-.27 3.82-.34196 1.23235-1.97725 2.807884-3.33 3.54-1.06087.120735-2.55761.738377-3.54.56-1.20603.476391-2.81136-.07851-4.08.09-1.40143.48534-3.0919-.123804-2.52-2.26 1.07483-.981716 1.58097-1.417407 1.37-3.62-.1342-1.230135.0226-3.222738-.22-4.2.27907-1.098061-.16663-1.78047.07-3.18-.22305-1.222308.29026-2.475795-.08-3.99-.8145.129735-1.84084-1.792243-1.16-2.97-.22263-1.380477 2.09492-.5189 3.02-.73 1.50227-.09969 3.3031-.05062 4.59.19 1.01397.387752 2.45171.664002 3.83 1.47 1.1058.840154 1.35171 2.876059 1.64 3.64-.0413 1.27132-.24644 2.673236-.86 3.72-.80219.02738.33523.317473-.27.5zm-6.69 3.63c-.21548 1.352144-.84731 4.102691.84 4.15.82475.271896 2.4161-.02126 3.09-.88 1.02496-1.617295 1.13427-3.682407-.74-4.48-.85363-.244326-3.23848-.850925-3.22.51.62198.375431-.78241.124063.03.7zm4.43-6.97c.0779-1.582915-1.19616-2.859785-2.46-3.1-1.1249-.321156-2.28766-.08527-2.19 1.54-.0479 1.212657-.0906 2.532652.06 3.63 1.14096.78067 3.18047.291385 4.17-.63.31546-.575891.0169-1.166272.42-1.44z" class="st0"/><path id="svg_7" fill="#065f46" d="M72.07 82.37c-.802108.173007-2.298497-.648496-3.15-1.21-.441386-.668111-1.477022-1.904118-1.65-3.57-.33091-.833757-.453949-2.134433-.46-3.11-.293045-1.433073-.133473-1.882632-.21125-3.39125.256773-1.601369.398862-3.625115.8575-5.365.293734-1.119022.77517-2.532735 1.48375-3.40375 1.194447-1.381007 2.465597-1.65808 3.88875-1.64625 1.405718-.151683 2.869429.105845 3.28125 1.10625 1.043278.476444 1.841 2.002658 2.24 3.35.474312 1.475481.31111 2.918512.81 4.13-.07545 1.686539-.07863 3.421903-.06 4.94-.114986 1.764262-.25625 2.955887-.48 4.51-.901589 1.533473-2.123241 2.039999-1.1 3.25.934726 1.65723.813014 2.465447-.63 3.07-1.780948 1.172308-3.018421-1.330012-3.3-2.54-.245166-.515907-1.161592-.01722-1.52-.12zm2.95-7.33c.04978-1.044966.250823-2.063916.16-3.06.196716-1.153831.143387-2.184438-.15-3.46.159352-1.610517-.764411-3.958901-2.5-3.96-1.901411.01541-2.04387 2.202796-2.17 3.43625.000813 1.69629-.408021 3.452321-.08 5.48375-.148098 1.265833.02112 2.67024.53 3.82.884133 1.144918 2.70411 1.431832 3.29.18.560441-.791451.29232-2.105145.92-2.44z" class="st0"/><path id="svg_8" fill="#065f46" d="M187.75 60.75c.99234-.232387 2.55278.388536 3.61.41 1.18913 1.026479 2.92459 1.178735 3.48 2.75.93977 1.229661.8439 2.271869 1.19 3.6325.0116 1.333707-.11351 3.481981-.9 4.8275-.79971 1.104325-2.25059 1.948873-1.37 3.33.75398.950293.95262 3.72846 2.36 3.76 1.0571-.449458 1.50647 3.105805.065 2.935-1.21422-.191521-2.52802.138229-3.745-.185-.6722-.138305-.19509-2.636036-1.09-3.25-.16989-1.165299-.64508-2.52233-1.29-3.51-1.30483-1.041024-.83979 1.877901-1.05 2.91.13313 1.358251 1.43242 1.4547.89 3.41-1.13808 1.203307-3.74737.260629-4.82.53-.73667-.135545-.88341-2.280952-.1-2.88.5298-.806489.28877-3.279805.235-4.9825.1226-1.306338.27899-2.825025.075-4.2775-.0464-1.88694-.0813-3.322065-.19-4.68.92539-1.728173-1.28034-1.738752-1.18-3.1-.18051-1.758248.98741-1.554071 2.55-1.56.18752.04496.86591.03533 1.28-.07zm2.35 10.28c1.2749.280731 2.34366-1.885151 2.25-2.6.2266-2.065192-.45789-4.069616-2.56-4.11-1.15598.582365-.48291 2.780439-.71 3.65.39445.762857-.66628 3.902627 1.02 3.06z" class="st0"/><path id="svg_9" fill="#065f46" d="M96.95 74.06c-.421643-1.445311-.254386-3.057497-.32-4.71.243924-1.504136.316811-2.604528.59-3.9.360316-1.317355 1.167895-2.814067 1.96-3.61 1.23694-.756492 2.33979-1.484105 4.01-1.33 1.26609-.187597 3.17504.653952 3.96 1.93 1.10881.985384 1.06201 2.905555 1.8 4.04.0632 1.6469.25642 3.364867.45 4.98-.21408.956524-.1414 2.429998-.36 3.17-.15973 1.309377-.0692 2.991186-1 4.48.0403 1.771682-2.32421 2.497028-3.02 3-1.6167.09175-3.78757.28398-4.99-.87-.926532-.168076-2.239921-1.385844-2.28-2.74-.684734-1.574151-.58291-3.054464-.8-4.44zm4.56-9.14c-.2829 1.000393-1.21455 2.981712-.89 4.28-.46715 1.397102.0984 2.908939-.23 4.08.33956 1.305346.0575 2.752956.9 4.01-.0864 1.043406 1.72013 2.050364 2.67.9 1.38745-.608975 1.27895-3.206733 1.56-4.72.0792-1.465097.0669-2.558528.17-3.99-.1793-1.128104-.23654-2.825552-.88-4.2-.5811-1.476738-2.12709-1.204907-3.3-.36z" class="st0"/><path id="svg_10" fill="#065f46" d="M90.03 61.17c1.163445-1.039092 2.391992-.131727 3.72-.57 1.821405-.105924 1.248466 2.855798.23 2.84-.127574.992976-.154345 2.865623.01125 3.85125-.35028 1.210076.06636 2.911075-.1275 4.13875.115368 1.447756-.357791 3.800546-.47375 4.94-.0625 1.350836-.75006 3.552086-1.82 4.07-.632739.93931-2.309306 1.738828-3.89 1.46-1.37102.144852-2.488129-.228513-3.44-.78-1.79412-.773286-1.875567-2.94972-2.27-4.28.07109-.946312-.03681-2.27289-.02-3.75-.06696-1.038485-.103666-2.515074-.0088-3.79875-.142831-1.71104-.150125-3.119505-.0512-4.95125.316344-1.485992-1.533117-.802924-1.03-2.45-.6136-1.85617 1.493021-.880799 2.24625-1.28625 1.302607-.14136 3.192482.255177 2.36375 2.03625.09468 1.252691-.52263 3.072428-.1 4.39-.273453 1.078893.0058 3.483214-.205 4.79125.398427 1.402316.02728 2.600941.655 4.00875.03646 1.782764 2.793831 2.755209 3.45125 1.16125.697138-1.39031.861859-2.69473.68875-3.98125.399128-1.08001-.177449-2.113764.2475-3.4175-.203957-1.50896-.101092-3.380232-.0375-4.9325-.222321-1.599095.155079-2.341946-.14-3.49Z" class="st0"/><path id="svg_11" fill="#065f46" d="M155.3 74.91c.0589-1.326264.74234-2.358309.78875-3.64125.52417-1.134443.50678-2.411651 1.12125-3.75875.10307-1.371015.75753-2.518713.91875-3.93625.59994-1.047044.65565-2.505818 1.81125-2.99375 1.45832-.658932 2.93792.02695 2.94 1.68.60364 1.441268.6669 2.813295 1.17 4.26.0484 1.720383.78662 2.809866.97875 4.4275.50163 1.3287.81612 3.667156 1.19125 5.2625.12865 2.081753 2.12575 3.658257.72 5.63-1.26191-.272846-3.07902.247316-4.17-.26-.7994-1.250713.87198-2.166391.07-3.41-.38245-1.215201-2.41163-1.094018-3.88-.7-2.19671.816046.55601 3.209743-1.18 4.29-1.19654-.11923-3.00343.310377-4.11-.29.0507-1.170423-.27556-1.900893.62-2.67.31392-1.130604.52435-2.645907 1.01-3.89zm6.81-1.28c-.13543-1.693732-.30564-3.093464-.8-4.46.098-2.662974-1.66754-1.631106-1.41.64-.16618 1.1792-1.378 3.522993-.01 4.06.36141.499872 1.68108-.241448 2.22-.24z" class="st0"/><path id="svg_12" fill="#065f46" d="M123.93 72.96c.13094-1.519033.86466-3.068201.91-4.13.24953-.81519.90511-2.750245 1.07-3.77.19947-1.177918.78799-2.484142 1.37-3.77.98422-.605934 2.57457-.925996 3.11.05.89005.97485.66073 2.53411 1.22 3.68.19722 1.450678.53174 3.254507 1.05 4.57.12165 1.13745.65857 2.310245.89 3.86.17545 1.46572.71298 2.634199.6925 3.78875.55784 1.225257.55378 2.33797 1.27375 3.12375.32319 2.556099-1.64352 1.716352-3.11 1.79625-1.77613.640031-1.81839-.961313-1.75375-1.89.92666-.699223.272-2.984068-1.5325-2.59875-.8155.213542-2.49289-.365756-3.02 1.065-.36075.850361 1.24027 3.467421-.79875 3.575-1.46416-.124896-2.44737-.137649-3.58125-.02-.25053-1.716105-.0492-2.203088.64-3.72.49914-1.163841.92844-3.546491 1.38-4.89-.0853-.251057.0302-.381997.19-.72zm5.55-2.77c-.0113-1.14873-.59537-3.780517-1.34-1.58-.34944 1.272709-.65378 3.305969-.83 4.22-.76846 1.897852 1.7877 1.37909 2.57 1.28.48901-1.229508.0341-2.657166-.4-3.92z" class="st0"/><path id="svg_13" fill="#065f46" d="M226.56 64.77c-.13452-1.092693 1.40704-3.728186 2.82-3.18 2.184.01611 1.84833 2.939448 2.445 4.23.0699 1.685586.99937 3.702819 1.08125 5.24.55067 1.434651.70815 2.479465 1.05375 4.3.35867 1.304872.42738 2.164714.92 3.82.0552 1.345424 1.00636 1.451096.87 3.18-1.12045 1.402829-2.70819.223676-4.26.62-1.86493-1.199857.8129-2.682643-.58-4.15-.90947-.845675-2.10079-.241671-3.58-.26-1.62677.623329-1.01565 1.910017-.62375 3.21375-.0269 2.174915-2.56301.680037-4.10625 1.27625-1.53208-.375968-.33415-2.673002-.03-3.77.71741-1.591997.79104-3.475241 1.52-4.99.26868-1.627202.51138-2.904567 1.15-4.31.0656-1.259555.66708-3.080184.96875-4.035.0591-.512932.18609-.610371.35125-1.185zm1.81 5c-.4243 1.40129-.7745 2.923295-.69 3.85-1.14907 1.913638 2.2079 1.827875 2.56.89.24529-1.686295-.74577-3.766472-.79-5.16875-.32105-1.59581-1.17821-.738093-1.08.42875z" class="st0"/><path id="svg_14" fill="#065f46" d="M213.09 82.8c-.99381-.228943-1.90292-.880495-2.62375-1.53125-.96327-1.383419-1.37727-2.375132-1.74625-3.78875-.14543-1.952302-.40176-3.305227-.16375-4.94375-.25989-1.224736.19438-2.994952.15375-4.38625.81247-1.545254.56248-3.000557 1.6-4.07 1.50205-1.855017 2.7512-2.974785 5.03-3.09 1.41033.334298 3.9212.425583 4.82 2.1.86109 1.112664 1.28381 2.371767 1.16 3.73.58526 1.574637-1.39994 1.404922-2.25 1.3-1.45837.05747-2.61302.266178-2.21-1.4 1.09829-1.158892-.39372-1.778775-1.91375-1.745-1.48935.336565-1.87032 2.193276-1.975 3.60875-.54233 1.558514-.34475 3.258761-.69125 4.79625.20347 1.501772-.12254 2.965139.7725 4.20125.26316 1.481613 2.03116 2.054822 3.6625 1.5975 1.37842-.890592-.50982-.941923.115-2.70875.72033-.667714 1.96377-.05756 2.93375-.46375 1.34966-.158129 2.0197.823198 1.37625 2.19375.23456 1.587053-.94187 3.052119-1.96 3.82-1.49954.499672-2.70359 1.091592-4.37.96-.6075.281928-.89177-.337254-1.72-.18z" class="st0"/><path id="svg_15" fill="#065f46" d="M61.22 63.84c-1.276909-.15851-2.580366-.315499-3.6.39.0785 1.491918-.190306 2.960228.0875 4.7025 1.188119.863861 2.703955.0411 3.98875.46125 1.790957.201572 1.189647 3.849512-.51875 3.35875-1.348303.552924-3.763132-.61032-3.9375 1.8775.06012 1.231206-.16384 3.30423 1.89 3.1 1.163006-.290111 2.885504.168187 4.02-.7 1.937708-.321725 1.636203 1.439145 1.41 3.12.617807 1.705116-2.329184.916697-3.38 1.29-1.212759.314706-2.120925.299347-3.8425.20625-1.452036.16669-3.420951-.640936-2.8375-2.32625-.153393-1.45118-.246136-3.428365 0-5.1-.432812-1.946901.04544-3.261079-.24-4.73-.03263-1.317803.266416-2.96756-.06-3.93.242598-1.25728-.143412-2.9001.61-4.07.68895-1.029639 2.206805-.932944 3.32-.93 1.341882.0699 2.993288-.596303 4.31-.14.875933-.454777 2.644327.0789 2.23.98.159605 1.153228.349115 4.00684-1.77 3.06-.678312.255267-.645799-1.419777-1.68-.62z" class="st0"/><path id="svg_16" fill="#065f46" d="M146.73 76.14c.40113 1.158701-.67656 3.423183.83 3.16.73921 1.174968.0588 3.000567-1.13 2.51-1.48666-.579707-4.10072.941846-4.24-.99-.53524-1.652534 1.16364-1.170222.83-2.6925.16342-1.418977-.35847-3.027261.1325-4.185-.24863-1.205135-.16947-2.682382-.0687-3.92125-.11393-1.211172-.0616-2.452443.0462-3.65125-.1512-1.309571.0548-3.035634.23-4.3.42594-2.004533 3.30535-1.116427 4.2-1.61.98586.389793 2.10679.240204 3.43.51 1.06147-.0821 2.51388.01887 3.475.52125.0777 1.361865.2699 2.761082-.185 4.06875-1.25949.538566-2.09963-.511744-2.81-1.02-1.0518.09535-2.99577-.27701-4.44.2-.15578 1.389109-.004 2.957836-.21 4.26.47295 1.296894 2.62057.610715 3.57969.802344 1.42157.674405 1.03622 3.042526-.12969 3.447656-1.51642.112955-1.8996-.192514-3.35.18-.4331.875251.12363 1.773372-.19 2.71z" class="st0"/><path id="svg_17" fill="#065f46" d="M117.52 69.93c-.16898 1.524864-.0941 2.750514-.16 4.5.23553 1.711231-.12846 2.428007.07 3.81 1.42686.40809 2.95803 1.104133 2.15 3.04.001 1.922819-2.80321.478772-3.92 1.01-1.27932-.08474-2.26727.127068-3.68-.2-1.19526-1.150194-.18031-3.986224 1.35-3.42 1.02261-.0823.0474-1.959728.5325-2.94-.25308-1.45316-.0365-2.442152.0875-4.27-.33114-1.410766.0746-3.27516-.26-4.19.0613-.926609.78718-3.587022-1.01-3.04-1.92089.02435-1.70378-4.306618.34-3.57 1.04013-.300165 2.11173.26166 3.21-.1 1.11767.477619 3.23775-.749703 3.19.86.8687 2.402138-.68482 2.829227-2.17 3.08.0217 1.106229.005 1.898545 0 3.11-.009.705675-.22376 1.543195.27 2.32z" class="st0"/><path id="svg_18" fill="#065f46" d="M198.6 79.8c.99649-1.471316 3.04853-.450949 2.33-2.96-.19006-1.546358-.0118-2.59708-.06-4.13.24614-1.777478-.19939-2.910488.11-4.62-.61356-1.205447.69798-3.363801-.85-3.67-1.52141.484885-1.82587-1.242178-1.47-2.59.13254-1.745998 2.36596-.605989 3.165-.99625 1.40918.284294 2.60344-.125951 4.355.05625.60567 1.052734 1.08658 3.662666-.96 3.62-1.79172-.859029-.34779 1.909161-.99 3 .14907 1.520178.0962 3.138075.25 4.76-.24767 1.348096-.0159 3.209583-.06 4.42-.76795 1.690586.71719 2.550392 1.94 2.6325.43926 1.145058.65407 3.242214-.6975 3.28375-1.79876-.121644-3.39059-.268312-5.3825.02375-1.45517-.01519-2.01071-.814544-1.69-2.41l.1175-.2625z" class="st0"/></g></g><style id="style1" type="text/css">.st0{fill:10101}</style></svg>